# xmcd
# 
# Track frame offsets:
#     183
#     11308
#     20395
#     34545
#     41633
#     53858
#     65308
#     84608
#     96158
#     111408
#     124833
#     139870
#     154808
#     173308
#     186283
#     202045
#     216145
#     227908
#     238183
#     253808
# 
# Disc length: 3541
# 
# Revision: 2
# Processed by: cddbd v1.5.2PL0 Copyright (c) Steve Scherf et al.
# Submitted via: BonkEnc v1.0.8
# 
DISCID=140dd314
DTITLE=Frank Sinatra - Compact Parade
DYEAR=1989
DGENRE=Easy Listening
TTITLE0=My Blue Heaven
TTITLE1=When You're Smiling
TTITLE2=September Song
TTITLE3=You Do Something To Me 
TTITLE4=April in Paris
TTITLE5=Blue Skies
TTITLE6=Stormy Weather
TTITLE7=The Continental
TTITLE8=Nancy
TTITLE9=Sptember In The Rain
TTITLE10=Close To You
TTITLE11=Embraceable You
TTITLE12=Ol Man River
TTITLE13=Blue Moon
TTITLE14=Mood Indigo
TTITLE15=They Say It's Wonderful
TTITLE16=Sentimental Baby
TTITLE17=Always
TTITLE18=The Birth Of The Blues
TTITLE19=What Is This Thing Called Love
EXTD=
EXTT0=
EXTT1=
EXTT2=
EXTT3=
EXTT4=
EXTT5=
EXTT6=
EXTT7=
EXTT8=
EXTT9=
EXTT10=
EXTT11=
EXTT12=
EXTT13=
EXTT14=
EXTT15=
EXTT16=
EXTT17=
EXTT18=
EXTT19=
PLAYORDER=
